<?xml version="1.0" encoding="UTF-8"?>
<svg width="640" height="121.75" version="1.1" viewBox="0 0 169.33 32.213" xmlns="http://www.w3.org/2000/svg">
 <defs>
  <clipPath id="clipPath32">
   <path d="m701.58 92.221h139.64v41.294h-139.64z"/>
  </clipPath>
 </defs>
 <g transform="translate(-62.965 -88.855)">
  <g transform="matrix(1.426 0 0 -1.426 -947.2 263.02)">
   <g clip-path="url(#clipPath32)">
    <g transform="translate(753.14 119.98)">
     <path d="m0 0-2.103-5.779h-0.835l-1.501 4.101c-0.489-1.348-1.019-2.76-1.501-4.101h-0.827l-2.102 5.779h1.123l1.397-3.813 1.396 3.813h1.036l1.397-3.813 1.396 3.813z" fill="#064465"/>
    </g>
    <g transform="translate(769.86 118.42)">
     <path d="m0 0h-1.068v0.45l-0.056 0.056h-3.539l-0.056-0.056v-3.548l0.056-0.056h3.539l0.056 0.056v1.091h-1.307v1.06h2.375v-2.151c0-0.619-0.505-1.116-1.124-1.116h-3.539c-0.618 0-1.116 0.497-1.116 1.116v3.548c0 0.617 0.498 1.115 1.116 1.115h3.539c0.619 0 1.124-0.498 1.124-1.115z" fill="#064465"/>
    </g>
    <g transform="translate(778.56 118.92)">
     <path d="m0 0h-4.246v-1.3h3.419v-1.06h-3.419v-1.3h4.246v-1.06h-5.314v5.779h5.314z" fill="#064465"/>
    </g>
    <g transform="translate(786.47 119.98)">
     <path d="m0 0h1.067v-5.779h-1.155l-3.563 4.237v-4.237h-1.06v5.779h1.155l3.556-4.238z" fill="#064465"/>
    </g>
    <path d="m790.65 119.98h1.059v-5.779h-1.059z" fill="#064465"/>
    <g transform="translate(799.69 119.98)">
     <path d="m0 0h1.068v-5.779h-1.156l-3.563 4.237v-4.237h-1.06v5.779h1.155l3.556-4.238z" fill="#064465"/>
    </g>
    <g transform="translate(809.68 118.42)">
     <path d="m0 0h-1.067v0.45l-0.057 0.056h-3.54l-0.056-0.056v-3.548l0.056-0.056h3.54l0.057 0.056v1.091h-1.309v1.06h2.376v-2.151c0-0.619-0.506-1.116-1.124-1.116h-3.54c-0.617 0-1.116 0.497-1.116 1.116v3.548c0 0.617 0.499 1.115 1.116 1.115h3.54c0.618 0 1.124-0.498 1.124-1.115z" fill="#064465"/>
    </g>
    <g transform="translate(818.28 118.92)">
     <path d="m0 0h-4.245v-1.3h3.419v-1.06h-3.419v-1.3h4.245v-1.06h-5.314v5.779h5.314z" fill="#064465"/>
    </g>
    <g transform="translate(826.08 119.98)">
     <path d="m0 0h1.067v-5.779h-1.156l-3.563 4.237v-4.237h-1.06v5.779h1.156l3.556-4.238z" fill="#064465"/>
    </g>
    <g transform="translate(756.65 117.2)">
     <path d="m0 0 0.578 1.662 0.056 0.056h1.757l0.055-0.056 0.58-1.662zm3.492 1.662c-0.232 0.681-0.498 1.116-1.115 1.116h-1.743c-0.617 0-0.883-0.435-1.115-1.116l-1.676-4.664h1.097l0.701 1.943h3.743l0.709-1.943h1.074z" fill="#064465"/>
    </g>
    <g transform="translate(747.58 109.65)">
     <path d="m0 0h0.513v-2.801c0-0.343-0.276-0.619-0.617-0.619h-2.185c-0.342 0-0.617 0.276-0.617 0.619v2.801h0.512v-2.801l0.105-0.105h2.185l0.104 0.105z" fill="#33b544"/>
    </g>
    <g transform="translate(752.26 109.65)">
     <path d="m0 0h0.513v-3.42h-0.608l-2.299 2.736v-2.736h-0.513v3.42h0.609l2.298-2.736z" fill="#33b544"/>
    </g>
    <path d="m754.06 109.65h0.512v-3.42h-0.512z" fill="#33b544"/>
    <g transform="translate(759.02 109.65)">
     <path d="m0 0h0.589l-1.971-3.42h-0.513l-1.975 3.42h0.593l1.639-2.839z" fill="#33b544"/>
    </g>
    <g transform="translate(763.21 109.13)">
     <path d="m0 0h-2.622v-0.94h2.109v-0.515h-2.109v-0.938h2.622v-0.514h-3.134v3.419h3.134z" fill="#33b544"/>
    </g>
    <g transform="translate(764.96 109.13)">
     <path d="m0 0v-1.168l2.289-1e-3 0.104 0.104v0.96l-0.104 0.104zm2.905-1.065c0-0.336-0.275-0.618-0.616-0.618h-0.348l0.964-1.148v-0.072h-0.607l-1.026 1.22h-1.168l-0.104 0.01v-1.23h-0.513v3.416h2.802c0.341 0 0.616-0.281 0.616-0.618z" fill="#33b544"/>
    </g>
    <g transform="translate(792.82 109.13)">
     <path d="m0 0v-1.168l2.289-1e-3 0.105 0.104v0.96l-0.105 0.104zm2.906-1.065c0-0.336-0.275-0.618-0.617-0.618h-0.347l0.964-1.148v-0.072h-0.608l-1.026 1.22h-1.168l-0.104 0.01v-1.23h-0.512v3.416h2.801c0.342 0 0.617-0.281 0.617-0.618z" fill="#33b544"/>
    </g>
    <g transform="translate(815.17 109.13)">
     <path d="m0 0v-1.168l2.289-1e-3 0.105 0.104v0.96l-0.105 0.104zm2.906-1.065c0-0.336-0.275-0.618-0.617-0.618h-0.347l0.964-1.148v-0.072h-0.608l-1.026 1.22h-1.168l-0.104 0.01v-1.23h-0.513v3.416h2.802c0.342 0 0.617-0.281 0.617-0.618z" fill="#33b544"/>
    </g>
    <g transform="translate(772.51 108.83)">
     <path d="m0 0h-0.512v0.2l-0.105 0.104h-2.185l-0.104-0.104v-0.732l0.104-0.104h2.185c0.342 0 0.617-0.276 0.617-0.618v-0.73c0-0.343-0.275-0.619-0.617-0.619h-2.185c-0.341 0-0.617 0.276-0.617 0.619v0.198h0.513v-0.198l0.104-0.105h2.185l0.105 0.105v0.73l-0.105 0.104h-2.185c-0.341 0-0.617 0.276-0.617 0.618v0.732c0 0.341 0.276 0.617 0.617 0.617h2.185c0.342 0 0.617-0.276 0.617-0.617z" fill="#33b544"/>
    </g>
    <path d="m773.76 109.65h0.512v-3.42h-0.512z" fill="#33b544"/>
    <g transform="translate(778.54 109.65)">
     <path d="m0 0v-0.512h-1.453v-2.908h-0.513v2.908h-1.454v0.512z" fill="#33b544"/>
    </g>
    <g transform="translate(782.56 109.65)">
     <path d="m0 0-1.578-2.137v-1.283h-0.513v1.283l-1.576 2.137h0.604l1.229-1.558 1.225 1.558z" fill="#33b544"/>
    </g>
    <g transform="translate(800.12 109.13)">
     <path d="m0 0h-2.622v-0.94h2.11v-0.515h-2.11v-0.938h2.622v-0.514h-3.135v3.419h3.135z" fill="#33b544"/>
    </g>
    <g transform="translate(804.58 108.83)">
     <path d="m0 0h-0.513v0.2l-0.105 0.104h-2.184l-0.105-0.104v-0.732l0.105-0.104h2.184c0.342 0 0.618-0.276 0.618-0.618v-0.73c0-0.343-0.276-0.619-0.618-0.619h-2.184c-0.343 0-0.617 0.276-0.617 0.619v0.198h0.512v-0.198l0.105-0.105h2.184l0.105 0.105v0.73l-0.105 0.104h-2.184c-0.343 0-0.617 0.276-0.617 0.618v0.732c0 0.341 0.274 0.617 0.617 0.617h2.184c0.342 0 0.618-0.276 0.618-0.617z" fill="#33b544"/>
    </g>
    <g transform="translate(808.98 109.13)">
     <path d="m0 0h-2.62v-0.94h2.108v-0.515h-2.108v-0.938h2.62v-0.514h-3.133v3.419h3.133z" fill="#33b544"/>
    </g>
    <g transform="translate(812.79 107.94)">
     <path d="m0 0-0.424 1.092-0.104 0.105h-0.996l-0.104-0.105-0.41-1.092zm-0.528 1.709c0.342 0 0.542-0.261 0.673-0.617l0.993-2.803h-0.539l-0.448 1.198h-2.373l-0.439-1.198h-0.514l1.033 2.803c0.133 0.382 0.276 0.617 0.618 0.617z" fill="#33b544"/>
    </g>
    <g transform="translate(819.86 109.13)">
     <path d="m0 0-0.104-0.105v-2.184l0.104-0.104h2.792v-0.514h-2.792c-0.342 0-0.617 0.275-0.617 0.618v2.184c0 0.342 0.275 0.617 0.617 0.617h2.792v-0.512z" fill="#33b544"/>
    </g>
    <g transform="translate(827.16 109.65)">
     <path d="m0 0v-3.42h-0.512v1.453h-2.476v-1.453h-0.512v3.42h0.512v-1.452h2.476v1.452z" fill="#33b544"/>
    </g>
    <g transform="translate(788.07 106.84)">
     <path d="m0 0-0.104-0.105h-2.183l-0.105 0.105-1e-3 1.021 8e-3 0.041 0.119 0.063 0.256 1e-3h0.365l1.645-1.039zm1.116-0.109-0.602 0.377v0.98h-0.514v-0.658l-1.883 1.18-9e-3 6e-3 -0.056 0.09v0.314l0.105 0.104h1.262l0.106-0.104v-0.227h0.512v0.337c-0.051 0.29-0.313 0.512-0.618 0.512h-1.262c-0.342 0-0.616-0.275-0.616-0.617v-0.385c0.016-0.175 0.098-0.236 0.266-0.334l-0.095 1e-3c-0.343 0-0.619-0.102-0.619-0.445v-1.021c0-0.343 0.276-0.618 0.618-0.618h2.185c0.267 0 0.493 0.167 0.58 0.403h1e-3l0.639-0.403z" fill="#33b544"/>
    </g>
    <g transform="translate(740.96 106.18)">
     <path d="m0 0c0.329 0.305-0.741 0.666-0.741 0.666s-1.144 0.527-5.689 0.898v-1.564h-7.03v1.794c-1.401 0.037-4.167 0.02-6.098 0v-1.794h-7.007v1.566c-3.046-0.206-5.051-0.6-5.051-0.6l-0.38-0.309c-0.378-0.255 9e-3 -0.349 0.266-0.476 0.101-0.05 0.107-0.077 0.071-0.181-0.029-0.082-0.263-0.129-0.217-0.27 0.093-0.295 0.518-0.013 0.492-0.401-0.032-0.457-1.055-0.199-1.158-0.624-0.08-0.336 0.378-0.028 0.372-0.674-5e-3 -0.644 0.466-1.288 1.788-1.615 0.313-0.078 1.786-0.053 1.028-0.491-0.09-0.052-0.395-0.044-0.496-0.054-0.145-0.015-0.478 0-0.57-0.133-0.143-0.205 0.161-0.2 0.115-0.391-0.173-0.022-0.541-0.017-0.38-0.309 0.083-0.149 0.354-0.23 0.509-0.222 0.823 0.045 0.709-0.028 0.964-0.056-0.458-0.089-0.874-0.565 0.854-0.519 0.039-0.262 0.505-0.237 0.665-0.201 10.764 2.385 15.419 1.368 15.45 2.029-0.15 0.325-1.668 0.29-1.918 0.302-0.985 0.046-3.078-0.057-2.957 0.195 0.054 0.59 10.965 0.444 9.687 0.077-0.058-0.017-0.824-0.144-0.919-0.194-0.594-0.317 1.672-0.38 1.907-0.4 0.272-0.025 0.948-5e-3 0.827-0.298-0.038-0.091-0.849 9e-3 -0.815-0.122 0.027-0.107 0.485-0.048 0.533-0.124 0.328-0.516-4.012-0.259-6.258-0.308-0.657-0.014-1.945-0.086-2.616-0.177-1.135-0.154-0.168-0.418 1.599-0.582 0.946-0.087 5.811-0.478 9.94-1.02 1.241-0.225 1.612 0.384 1.333 0.55-0.158 0.094 0.523 0.438-0.238 0.763-0.483 0.206-0.086 0.29-0.056 0.28 0.07-0.022 1.053-0.256 0.689 0.075-0.234 0.213 0.16 0.088 0.232 0.093 0.915 0.07 0.702 0.415 0.76 0.359-0.273 0.268 0.462 0.461 0.293 1.058-0.05 0.175-1.103 0.14-0.411 0.284 0.078 0.017 1.04-9e-3 0.15 0.514-0.206 0.121-0.404 0.127-0.699 0.194-0.661 0.15-0.165 0.482 0.163 0.427 0.402-0.067 0.806 0.2 0.737 0.592-0.084 0.533-0.265 1.288 0.28 1.393" fill="#064465"/>
    </g>
    <g transform="translate(715.44 122.14)">
     <path d="m0 0v-15.959h5.962v9.947h6.098v-9.947h5.962v15.959z" fill="#33b544"/>
    </g>
   </g>
  </g>
 </g>
</svg>
